<svg width="72" height="24" viewBox="0 0 72 24" fill="none" xmlns="http://www.w3.org/2000/svg">
<path fill-rule="evenodd" clip-rule="evenodd" d="M33.0346 0.896912C31.9278 0.896912 31.3743 1.34717 31.3743 2.24768V22.1997C31.3743 23.1002 31.9278 23.5504 33.0346 23.5504C34.1603 23.5504 34.7231 23.1002 34.7231 22.1997V2.24768C34.7231 1.34717 34.1603 0.896912 33.0346 0.896912ZM21.131 23.5504C22.2566 23.5504 22.8194 23.1002 22.8194 22.1997V2.24768C22.8194 1.34717 22.2566 0.896912 21.131 0.896912C20.0241 0.896912 19.4707 1.34717 19.4707 2.24768V22.1997C19.4707 23.1002 20.0241 23.5504 21.131 23.5504ZM52.4935 22.2841C53.5066 21.5337 54.0131 20.3986 54.0131 18.879V2.24768C54.0131 1.34717 53.4503 0.896912 52.3246 0.896912C51.2178 0.896912 50.6643 1.34717 50.6643 2.24768V18.6539C50.6643 19.1417 50.5236 19.5825 50.2422 19.9765C49.9608 20.3705 49.473 20.5675 48.7789 20.5675H44.0512C43.357 20.5675 42.8693 20.3705 42.5878 19.9765C42.3064 19.5825 42.1657 19.1417 42.1657 18.6539V2.24768C42.1657 1.34717 41.6029 0.896912 40.4773 0.896912C39.3704 0.896912 38.817 1.34717 38.817 2.24768V18.879C38.817 19.667 38.9483 20.3424 39.2109 20.9052C39.4736 21.4492 39.8488 21.9089 40.3366 22.2841C40.8243 22.6405 41.3215 22.9219 41.828 23.1283C42.3533 23.3159 42.8599 23.4097 43.3477 23.4097H49.4824C49.9702 23.4097 50.4673 23.3159 50.9739 23.1283C51.4992 22.9219 52.0057 22.6405 52.4935 22.2841ZM65.8431 22.2559C65.8431 23.1565 65.2803 23.6067 64.1546 23.6067C63.0478 23.6067 62.4943 23.1565 62.4943 22.2559V3.87986H57.5696C56.8943 3.87986 56.5378 3.40146 56.5003 2.44467C56.5003 1.50663 56.8567 1.03762 57.5696 1.03762H70.7678C71.4807 1.03762 71.8184 1.50663 71.7809 2.44467C71.7809 3.40146 71.4432 3.87986 70.7678 3.87986H65.8431V15.7855H68.2818C68.7485 15.7855 69.1269 16.1639 69.1269 16.6306C69.1269 17.0973 68.7485 17.4757 68.2818 17.4757H65.8431V18.6624H69.0176C69.7135 18.6624 70.2776 19.2265 70.2776 19.9224V19.9892C70.2776 20.6851 69.7135 21.2493 69.0176 21.2493H65.8431V22.2559ZM2.84213 23.823C2.10273 23.823 1.50333 23.2236 1.50333 22.4842C1.50333 21.7448 2.10273 21.1454 2.84213 21.1454H11.0482C11.7622 21.1454 12.3817 20.9774 12.9067 20.6414C13.4528 20.2844 13.8728 19.8329 14.1668 19.2869C14.4608 18.7408 14.6078 18.1633 14.6078 17.5543C14.6078 16.6093 14.2928 15.7902 13.6628 15.0972C13.0327 14.3832 12.1822 14.0262 11.1112 14.0262H6.95303C5.69298 14.0262 4.59044 13.7742 3.64541 13.2702C2.70038 12.7451 1.96535 12.0311 1.44033 11.1281C0.915311 10.204 0.652802 9.1645 0.652802 8.00946C0.652802 6.83342 0.904811 5.78338 1.40883 4.85935C1.93385 3.91431 2.65837 3.16879 3.58241 2.62277C4.52744 2.05575 5.60898 1.77224 6.82702 1.77224H14.8441C15.5835 1.77224 16.1829 2.37164 16.1829 3.11103C16.1829 3.85043 15.5835 4.44983 14.8441 4.44983H7.11053C6.41751 4.44983 5.80849 4.61784 5.28347 4.95385C4.77945 5.26886 4.38044 5.68888 4.08642 6.2139C3.81342 6.71791 3.67691 7.26393 3.67691 7.85196C3.67691 8.73399 3.97092 9.51101 4.55894 10.183C5.14696 10.8551 5.96599 11.1911 7.01603 11.1911H11.2687C12.5917 11.1911 13.7258 11.4536 14.6708 11.9786C15.6158 12.5036 16.3404 13.2176 16.8444 14.1207C17.3484 15.0237 17.6004 16.0528 17.6004 17.2078C17.6004 18.4888 17.3379 19.6334 16.8129 20.6414C16.2879 21.6285 15.5528 22.4055 14.6078 22.9725C13.6838 23.5395 12.6127 23.823 11.3947 23.823H2.84213ZM29.0446 11.1823C29.0446 11.8961 28.6524 12.5183 28.0719 12.8454V15.6023C28.0719 16.1012 27.6675 16.5055 27.1687 16.5055C26.6699 16.5055 26.2655 16.1012 26.2655 15.6023L26.2655 12.8794C25.6504 12.5628 25.2296 11.9217 25.2296 11.1823C25.2296 10.1288 26.0836 9.27479 27.1371 9.27479C28.1906 9.27479 29.0446 10.1288 29.0446 11.1823Z" fill="black"/>
</svg>
